<?xml version="1.0" standalone="no"?>
<!DOCTYPE svg PUBLIC "-//W3C//DTD SVG 20010904//EN"
 "http://www.w3.org/TR/2001/REC-SVG-20010904/DTD/svg10.dtd">
<svg version="1.0" xmlns="http://www.w3.org/2000/svg"
 width="284.000000pt" height="284.000000pt" viewBox="0 0 284.000000 284.000000"
 preserveAspectRatio="xMidYMid meet">
<metadata>
Created by potrace 1.11, written by Peter Selinger 2001-2013
</metadata>
<g transform="translate(0.000000,284.000000) scale(0.100000,-0.100000)"
fill="#000000" stroke="none">
<path d="M716 2833 c-1 -1 -27 -4 -58 -7 -89 -9 -137 -22 -245 -67 -18 -7 -33
-17 -33 -21 0 -4 -7 -8 -15 -8 -28 0 -174 -131 -223 -201 -32 -45 -81 -149
-97 -204 -9 -33 -21 -68 -26 -77 -13 -26 -14 -1629 -1 -1654 9 -15 20 -52 26
-84 1 -3 5 -11 9 -17 5 -7 6 -13 2 -13 -8 0 53 -118 85 -165 84 -120 221 -222
360 -269 133 -44 146 -45 945 -42 527 1 774 6 805 14 195 49 326 130 435 267
46 57 107 175 120 230 2 6 10 37 19 70 14 52 15 156 15 830 -1 758 -3 814 -32
900 -2 6 -7 24 -12 40 -12 46 -80 165 -122 214 -71 82 -132 133 -213 175 -95
50 -159 70 -265 82 -45 5 -1474 12 -1479 7z"/>
</g>
</svg>
